<?xml version="1.0" encoding="utf-8"?>
<!-- Generator: Adobe Illustrator 14.0.0, SVG Export Plug-In  -->
<!DOCTYPE svg PUBLIC "-//W3C//DTD SVG 1.1 Basic//EN" "http://www.w3.org/Graphics/SVG/1.1/DTD/svg11-basic.dtd" [
	<!ENTITY ns_flows "http://ns.adobe.com/Flows/1.0/">
]>
<svg version="1.1" baseProfile="basic"
	 xmlns="http://www.w3.org/2000/svg" xmlns:xlink="http://www.w3.org/1999/xlink" xmlns:a="http://ns.adobe.com/AdobeSVGViewerExtensions/3.0/"
	 x="0px" y="0px" width="50px" height="70px" viewBox="0 0 50 70" enable-background="new 0 0 50 70" xml:space="preserve">
<defs>
</defs>
<path fill="#FFFFFF" d="M25.029,58.727c-3.396-2.23-13.213-9.197-18.342-18.225L6.64,40.42l-0.053-0.078
	c-2.23-3.271-3.269-8.146-3.269-15.338c0-16.408,5.268-21.679,21.678-21.679c16.417,0,21.686,5.271,21.686,21.679
	c0,6.83-0.93,11.533-2.928,14.809l-0.062,0.105C38.662,49.225,28.496,56.447,25.029,58.727L25.029,58.727z"/>
<path fill="#1080DD" d="M24.996,5.652c15.196,0,19.358,4.163,19.358,19.353c0,6.298-0.848,10.742-2.588,13.597l-0.061,0.104
	l-0.061,0.107c-4.271,7.906-12.551,14.295-16.621,17.113c-3.973-2.744-11.943-8.879-16.315-16.572l-0.093-0.164L8.51,39.033
	c-1.928-2.83-2.865-7.416-2.865-14.027C5.644,9.815,9.804,5.652,24.996,5.652 M24.996,1C7.21,1,0.992,7.221,0.992,25.004
	c0,7.451,1.094,12.861,3.672,16.646c6.629,11.664,20.365,19.832,20.365,19.832s14.227-8.465,20.711-20.459
	c2.283-3.748,3.268-8.973,3.268-16.021C49.008,7.221,42.781,1,24.996,1L24.996,1z"/>
<path fill="none" stroke="#FFFFFF" stroke-width="1.3293" d="M49.008,25.005c0-17.784-6.227-24.004-24.012-24.004
	C7.21,1.001,0.992,7.222,0.992,25.005c0,7.451,1.094,12.862,3.672,16.646c6.629,11.664,20.365,19.832,20.365,19.832
	s14.227-8.465,20.711-20.459C48.023,37.275,49.008,32.053,49.008,25.005z"/>
<circle fill="#1080DD" cx="25" cy="25.803" r="6.829"/>
<rect opacity="0" fill="#725E5E" width="50" height="70"/>
</svg>
